<svg width="556" height="482" viewBox="0 0 556 482" fill="none" xmlns="http://www.w3.org/2000/svg">
<path d="M191.79 267.2C191.79 267.2 192.42 280.09 196.65 292.98C200.88 305.87 204.68 312 203.41 317.49C202.14 322.98 200.24 328.69 200.03 332.91C199.82 337.13 200.88 342.63 202.35 343.47C203.83 344.32 214.23 346.3 226.3 346.11C238.37 345.92 268.78 345.51 268.78 345.51L277.96 346.31L275.57 341.39C275.57 341.39 279.03 341.52 279.56 342.19C280.09 342.85 281.16 343.79 281.16 343.79C281.16 343.79 279.7 337.54 278.1 336.34C276.5 335.14 272.51 333.81 272.51 333.81C272.51 333.81 268.52 329.29 265.2 329.42C261.88 329.55 253.1 329.55 248.31 328.09C243.52 326.63 224.77 324.23 224.77 324.23C224.77 324.23 236.21 312.93 243.79 306.54C251.37 300.15 260.81 288.19 263.74 277.68C266.67 267.17 270.66 246.96 270.66 246.96" fill="#45D62F"/>
<path d="M191.79 267.2C191.79 267.2 192.42 280.09 196.65 292.98C200.88 305.87 204.68 312 203.41 317.49C202.14 322.98 200.24 328.69 200.03 332.91C199.82 337.13 200.88 342.63 202.35 343.47C203.83 344.32 214.23 346.3 226.3 346.11C238.37 345.92 268.78 345.51 268.78 345.51L277.96 346.31L275.57 341.39C275.57 341.39 279.03 341.52 279.56 342.19C280.09 342.85 281.16 343.79 281.16 343.79C281.16 343.79 279.7 337.54 278.1 336.34C276.5 335.14 272.51 333.81 272.51 333.81C272.51 333.81 268.52 329.29 265.2 329.42C261.88 329.55 253.1 329.55 248.31 328.09C243.52 326.63 224.77 324.23 224.77 324.23C224.77 324.23 236.21 312.93 243.79 306.54C251.37 300.15 260.81 288.19 263.74 277.68C266.67 267.17 270.66 246.96 270.66 246.96" stroke="#031F43" stroke-width="2" stroke-linecap="round" stroke-linejoin="round"/>
<path d="M321.04 138.94C321.04 138.94 329.52 145.66 334.36 144C339.2 142.35 343.17 134.31 343.17 134.31C343.17 134.31 341.12 130.63 344.09 128.87C347.06 127.11 349.12 128.55 350.15 129.25C351.77 130.34 353.51 131.78 353.4 135.19C353.29 138.6 350.32 137.94 349.77 137.72C349.22 137.5 347.46 142.67 344.93 146.75C342.4 150.82 339.98 154.68 334.8 155.78C329.63 156.88 321.37 156.77 316.74 150.16" fill="#45D62F"/>
<path d="M321.04 138.94C321.04 138.94 329.52 145.66 334.36 144C339.2 142.35 343.17 134.31 343.17 134.31C343.17 134.31 341.12 130.63 344.09 128.87C347.06 127.11 349.12 128.55 350.15 129.25C351.77 130.34 353.51 131.78 353.4 135.19C353.29 138.6 350.32 137.94 349.77 137.72C349.22 137.5 347.46 142.67 344.93 146.75C342.4 150.82 339.98 154.68 334.8 155.78C329.63 156.88 321.37 156.77 316.74 150.16" stroke="#031F43" stroke-width="2" stroke-linecap="round" stroke-linejoin="round"/>
<path d="M322.98 19.0899C322.98 19.0899 324.3 14.9799 323.13 11.5999C321.95 8.21992 320.05 4.54993 320.05 4.54993C320.05 4.54993 316.08 13.0699 314.32 11.4499C312.56 9.82992 309.03 2.77992 309.03 2.77992C309.03 2.77992 308.3 9.82993 305.21 11.1499C302.13 12.4699 298.89 9.23992 296.4 7.17992C293.9 5.11992 289.2 0.419922 289.2 0.419922C289.2 0.419922 295.07 18.3399 291.99 20.3899C288.91 22.4499 283.32 20.2399 283.32 20.2399C283.32 20.2399 287.87 26.2599 284.05 28.3199C280.23 30.3799 270.83 26.6999 270.83 26.6999C270.83 26.6999 279.05 32.7199 278.91 38.0099C278.76 43.2999 275.83 45.7899 274.5 44.0299C273.18 42.2699 272.44 39.4799 272.44 39.4799C272.44 39.4799 269.8 42.4199 268.03 39.7699C266.27 37.1299 266.56 33.8999 266.56 33.8999C266.56 33.8999 265.24 39.4799 260.24 37.2799C255.24 35.0799 251.87 30.2299 251.87 30.2299C251.87 30.2299 255.1 36.9899 253.78 40.5099C252.46 44.0299 249.81 46.0899 249.81 46.0899C249.81 46.0899 252.01 46.8199 252.01 49.6099C252.01 52.3999 251.28 51.5199 251.28 51.5199C251.28 51.5199 256.42 52.3999 255.83 54.5999C255.24 56.7999 255.1 59.5899 249.81 59.2999C244.52 59.0099 243.94 53.4299 243.94 53.4299C243.94 53.4299 243.94 56.2199 237.92 55.7799C231.9 55.3399 228.08 54.4599 228.08 54.4599C228.08 54.4599 231.6 58.8699 228.52 60.6299C225.44 62.3899 222.2 62.5399 222.2 62.5399C222.2 62.5399 227.19 66.5099 227.49 70.6199C227.78 74.7299 225.73 76.6399 225.73 76.6399C225.73 76.6399 230.72 78.8399 229.25 81.9299C227.78 85.0099 224.11 83.8399 224.11 83.8399C224.11 83.8399 225.87 86.7799 221.47 88.5399C217.06 90.2999 215.15 85.8999 215.15 85.8999C215.15 85.8999 212.65 89.7199 209.13 88.6899C205.61 87.6599 203.55 84.1399 203.55 84.1399C203.55 84.1399 201.64 86.4899 198.26 84.2899C194.88 82.0899 193.41 80.1799 193.41 80.1799C193.41 80.1799 198.26 86.3499 197.96 91.4899C197.67 96.6299 195.32 98.2499 195.32 98.2499C195.32 98.2499 197.38 100.89 197.38 104.27C197.38 107.65 194.59 109.41 194.59 109.41C194.59 109.41 201.05 110.44 201.93 114.55C202.81 118.66 201.2 120.87 201.2 120.87C201.2 120.87 204.43 124.69 201.79 127.63C199.15 130.57 195.77 127.19 195.77 127.19C195.77 127.19 195.77 132.62 191.95 132.62C188.13 132.62 184.02 130.56 184.02 130.56C184.02 130.56 189.01 135.41 189.31 138.78C189.6 142.16 187.25 144.36 187.25 144.36C187.25 144.36 192.68 147.59 190.48 150.23C188.28 152.87 185.63 151.55 185.63 151.55C185.63 151.55 187.54 156.98 183.43 156.98C179.32 156.98 175.5 153.9 175.5 153.9C175.5 153.9 179.47 161.54 177.41 163.74C175.35 165.94 173.44 164.33 173.44 164.33C173.44 164.33 173.59 169.62 169.33 169.62C165.07 169.62 163.46 165.65 163.46 165.65C163.46 165.65 164.63 173.43 160.82 178.57C157 183.71 154.65 180.48 154.65 180.48L152.89 176.51C152.89 176.51 150.69 181.06 148.63 181.5C146.57 181.94 142.61 178.12 142.61 178.12C142.61 178.12 137.03 179.29 133.65 177.24C130.27 175.18 130.13 170.19 130.13 170.19C130.13 170.19 124.26 177.09 121.91 174.89C119.56 172.69 121.47 161.97 121.47 161.97C121.47 161.97 117.5 166.23 115.01 165.79C112.52 165.35 110.6 164.32 110.6 164.32C110.6 164.32 112.07 167.55 108.69 166.82C105.31 166.09 101.79 161.68 101.64 159.77C101.49 157.86 100.47 155.07 100.47 155.07C100.47 155.07 97.83 159.18 95.92 156.39C94.01 153.6 94.45 151.4 94.45 151.4C94.45 151.4 88.72 151.99 85.78 148.32C82.84 144.65 81.08 139.36 81.08 139.36C81.08 139.36 77.7 141.56 73.74 139.95C69.77 138.33 68.75 134.52 68.75 134.52C68.75 134.52 62.43 134.23 58.47 132.32C54.5 130.41 53.18 128.5 53.18 128.5C53.18 128.5 51.27 129.53 49.8 128.21C48.33 126.89 45.69 127.04 44.81 125.57C43.93 124.1 42.17 120.87 42.17 120.87C42.17 120.87 41.58 124.54 38.35 124.1C35.12 123.66 33.06 122.63 30.42 122.93C27.78 123.23 18.52 126.45 18.52 126.45C18.52 126.45 79.03 153.47 93.43 165.81C107.83 178.15 138.67 196.8 165.55 192.83C192.43 188.86 212.55 165.22 225.18 144.8C237.81 124.38 254.11 89.5799 266.3 76.0599C278.47 62.5599 322.98 19.0899 322.98 19.0899Z" fill="#F3B63F"/>
<path d="M369.7 82.0399C369.7 82.0399 386.99 93.6199 382.68 118.79C378.58 142.72 394.97 161.15 394.97 161.15C394.97 161.15 394.55 144.27 396.29 140.8C398.03 137.33 402.46 147.71 408.4 159.47C414.34 171.23 413.93 190.56 421.28 210.45C428.63 230.34 451.54 228.24 460.28 242.46C468.89 256.45 476.02 257.99 476.02 257.99L471.87 244.44C471.87 244.44 482.27 241.56 502.72 262.67C523.17 283.78 523.2 295.58 534.64 305.58C543.15 313.03 549.38 315.54 554.99 317.68C558.15 318.88 528.02 294.64 533.36 268.27C537.32 248.72 528.25 215.33 516.31 208.72C504.37 202.12 494.9 187.66 500.85 181.54C506.8 175.43 507.32 167.19 499.56 157.47C491.79 147.75 462.04 142.1 458.1 131.69C454.16 121.28 469.47 127.7 469.47 127.7C469.47 127.7 460.46 95.9099 431.25 91.3999C373.51 82.4899 327.73 53.4199 327.73 53.4199L337.9 63.8899L369.7 82.0399Z" fill="#E72A8B"/>
<path d="M368.97 83.1599C368.97 83.1599 370.32 80.9898 370.45 79.1698C370.58 77.3498 370.19 76.0898 370.19 76.0898L364.98 79.7798L368.97 83.1599Z" fill="white" stroke="#031F43" stroke-width="2" stroke-miterlimit="10" stroke-linecap="round" stroke-linejoin="round"/>
<path d="M363.3 79.8199C363.3 79.8199 364.32 77.4799 364.19 75.6599C364.06 73.8399 363.49 72.6499 363.49 72.6499L358.86 77.0399L363.3 79.8199Z" fill="white" stroke="#031F43" stroke-width="2" stroke-miterlimit="10" stroke-linecap="round" stroke-linejoin="round"/>
<path d="M357.97 77.95C357.97 77.95 358.99 75.61 358.86 73.79C358.73 71.97 358.16 70.78 358.16 70.78L353.53 75.17L357.97 77.95Z" fill="white" stroke="#031F43" stroke-width="2" stroke-miterlimit="10" stroke-linecap="round" stroke-linejoin="round"/>
<path d="M353.5 76.69C353.5 76.69 354.52 74.35 354.39 72.53C354.26 70.71 353.69 69.52 353.69 69.52L349.06 73.91L353.5 76.69Z" fill="white" stroke="#031F43" stroke-width="2" stroke-miterlimit="10" stroke-linecap="round" stroke-linejoin="round"/>
<path d="M348.59 73.9601C348.59 73.9601 349.61 71.62 349.48 69.8C349.35 67.98 348.78 66.79 348.78 66.79L344.15 71.18L348.59 73.9601Z" fill="white" stroke="#031F43" stroke-width="2" stroke-miterlimit="10" stroke-linecap="round" stroke-linejoin="round"/>
<path d="M341 54.26C341 54.26 339.9 56.56 339.96 58.39C340.03 60.22 340.55 61.42 340.55 61.42L345.33 57.19L341 54.26Z" fill="white" stroke="#031F43" stroke-width="2" stroke-miterlimit="10" stroke-linecap="round" stroke-linejoin="round"/>
<path d="M345.68 56.6099C345.68 56.6099 344.58 58.9099 344.64 60.7399C344.71 62.5699 345.23 63.7699 345.23 63.7699L350.01 59.5399L345.68 56.6099Z" fill="white" stroke="#031F43" stroke-width="2" stroke-miterlimit="10" stroke-linecap="round" stroke-linejoin="round"/>
<path d="M351.31 58.4399C351.31 58.4399 350.21 60.7399 350.27 62.5699C350.34 64.3999 350.86 65.5999 350.86 65.5999L355.64 61.3699L351.31 58.4399Z" fill="white" stroke="#031F43" stroke-width="2" stroke-miterlimit="10" stroke-linecap="round" stroke-linejoin="round"/>
<path d="M356.44 61.0698C356.44 61.0698 355.34 63.3698 355.4 65.1998C355.47 67.0298 355.99 68.2298 355.99 68.2298L360.77 63.9998L356.44 61.0698Z" fill="white" stroke="#031F43" stroke-width="2" stroke-miterlimit="10" stroke-linecap="round" stroke-linejoin="round"/>
<path d="M361.91 63.2998C361.91 63.2998 360.81 65.5998 360.87 67.4298C360.94 69.2598 361.46 70.4598 361.46 70.4598L366.24 66.2298L361.91 63.2998Z" fill="white" stroke="#031F43" stroke-width="2" stroke-miterlimit="10" stroke-linecap="round" stroke-linejoin="round"/>
<path d="M367.04 65.75C367.04 65.75 365.94 68.05 366 69.88C366.07 71.71 366.59 72.91 366.59 72.91L371.37 68.68L367.04 65.75Z" fill="white" stroke="#031F43" stroke-width="2" stroke-miterlimit="10" stroke-linecap="round" stroke-linejoin="round"/>
<path d="M372.22 67.25C372.22 67.25 371.12 69.55 371.18 71.38C371.25 73.21 371.77 74.41 371.77 74.41L376.55 70.18L372.22 67.25Z" fill="white" stroke="#031F43" stroke-width="2" stroke-miterlimit="10" stroke-linecap="round" stroke-linejoin="round"/>
<path d="M380.79 301.86C380.79 301.86 383.34 301.34 386.98 302.25C390.63 303.16 392.33 302.39 393.48 301.69C395.59 300.4 396.41 297.65 394.67 293.61C393.19 290.16 385.05 289.13 385.05 289.13L385.34 290.47C385.34 290.47 377.81 288.61 371.48 292.61C365.16 296.61 365.06 306.65 365.06 306.65L367.01 306.37C367.01 306.37 366.55 312.23 368.87 314.93C371.19 317.63 371.75 317.72 371.75 317.72C371.75 317.72 370.54 312.98 372.12 312.05C373.7 311.12 375.37 312.33 375.37 312.33L376.51 311.31C378.76 309.3 380.2 306.54 380.57 303.55L380.79 301.86Z" fill="#031F43"/>
<path d="M393.44 300.62C393.44 300.62 393.87 316.83 392.5 319.22C391.13 321.61 388.06 324.17 384.74 324.17C381.42 324.17 378.34 322.12 378.34 322.12" stroke="#031F43" stroke-width="2" stroke-miterlimit="10" stroke-linecap="round" stroke-linejoin="round"/>
<path d="M382.11 306.48C382.11 306.48 384.35 307.02 384.82 307.64" stroke="#031F43" stroke-width="2" stroke-miterlimit="10" stroke-linecap="round" stroke-linejoin="round"/>
<path d="M391.78 306.33C391.78 306.33 389.54 306.87 389.07 307.49" stroke="#031F43" stroke-width="2" stroke-miterlimit="10" stroke-linecap="round" stroke-linejoin="round"/>
<path d="M386.68 311.8C386.68 311.8 386.44 314.23 387.52 314.6" stroke="#031F43" stroke-width="2" stroke-miterlimit="10" stroke-linecap="round" stroke-linejoin="round"/>
<path d="M383.27 311.47C383.778 311.47 384.19 311.058 384.19 310.55C384.19 310.042 383.778 309.63 383.27 309.63C382.762 309.63 382.35 310.042 382.35 310.55C382.35 311.058 382.762 311.47 383.27 311.47Z" fill="#031F43"/>
<path d="M389.67 311.47C390.178 311.47 390.59 311.058 390.59 310.55C390.59 310.042 390.178 309.63 389.67 309.63C389.162 309.63 388.75 310.042 388.75 310.55C388.75 311.058 389.162 311.47 389.67 311.47Z" fill="#031F43"/>
<path d="M384.17 320.16C385.153 320.16 385.95 319.363 385.95 318.38C385.95 317.397 385.153 316.6 384.17 316.6C383.187 316.6 382.39 317.397 382.39 318.38C382.39 319.363 383.187 320.16 384.17 320.16Z" stroke="#031F43" stroke-width="2" stroke-miterlimit="10" stroke-linecap="round" stroke-linejoin="round"/>
<path d="M374.2 318.98L373.88 322.25C373.88 322.25 346.22 324.3 336.92 328.84C327.61 333.38 308.89 355.74 308.89 355.74L315.93 365.39C315.93 365.39 329.32 351.2 335.79 347.35C342.26 343.49 349.98 341.56 349.98 341.56L342.6 365.05L322.85 371.97C322.85 371.97 320.81 373.9 323.76 378.1C326.71 382.3 329.77 382.64 329.77 382.64C329.77 382.64 346.34 369.48 353.15 360.28C359.96 351.08 370.17 332.25 372.33 326.46" fill="#347CE1"/>
<path d="M374.2 318.98L373.88 322.25C373.88 322.25 346.22 324.3 336.92 328.84C327.61 333.38 308.89 355.74 308.89 355.74L315.93 365.39C315.93 365.39 329.32 351.2 335.79 347.35C342.26 343.49 349.98 341.56 349.98 341.56L342.6 365.05L322.85 371.97C322.85 371.97 320.81 373.9 323.76 378.1C326.71 382.3 329.77 382.64 329.77 382.64C329.77 382.64 346.34 369.48 353.15 360.28C359.96 351.08 370.17 332.25 372.33 326.46" stroke="#243C5B" stroke-width="2" stroke-miterlimit="10" stroke-linecap="round" stroke-linejoin="round"/>
<path d="M342.59 365.04L353.15 360.27" stroke="#031F43" stroke-width="2" stroke-miterlimit="10" stroke-linecap="round" stroke-linejoin="round"/>
<path d="M310.36 358.23C310.36 358.23 305.93 360.84 304.46 361.52C302.98 362.2 301.17 364.02 301.17 364.02C301.17 364.02 299.01 362.77 298.67 364.25C298.33 365.73 298.67 367.31 300.94 370.26C303.21 373.21 305.48 374.12 307.98 373.66C310.48 373.21 311.61 369.46 312.63 367.53C313.65 365.6 314.33 363.33 314.33 363.33" stroke="#031F43" stroke-width="2" stroke-miterlimit="10" stroke-linecap="round" stroke-linejoin="round"/>
<path d="M373.88 322.24C373.88 322.24 377.21 327.7 379.93 327.59C382.65 327.48 385.67 325.19 385.67 325.19C385.67 325.19 384 334.68 384 334.37C384 334.06 379.93 328.32 379.93 328.32L375.34 333.64L371.06 322.58" stroke="#031F43" stroke-width="2" stroke-miterlimit="10" stroke-linecap="round" stroke-linejoin="round"/>
<path d="M368.14 323.32L363.44 330.31L364.8 332.71L362.09 334.38L357.29 354.31" stroke="#031F43" stroke-width="2" stroke-miterlimit="10" stroke-linecap="round" stroke-linejoin="round"/>
<path d="M403.51 385.5C403.51 385.5 402.47 388 399.75 386.33C397.04 384.66 389.94 380.8 385.66 379.44C381.38 378.08 378.91 377.87 378.91 377.87" stroke="#031F43" stroke-width="2" stroke-miterlimit="10" stroke-linecap="round" stroke-linejoin="round"/>
<path d="M397.56 325.2C397.56 325.2 411.44 331.36 416.34 332.82C421.24 334.28 432.71 334.98 437.21 334.8C442.43 334.59 444.3 335.01 444.3 335.01L440.54 347.43C440.54 347.43 418.84 348.79 413.1 347.33C407.36 345.87 398.08 342.43 398.08 342.43" fill="#347CE1"/>
<path d="M397.56 325.2C397.56 325.2 411.44 331.36 416.34 332.82C421.24 334.28 432.71 334.98 437.21 334.8C442.43 334.59 444.3 335.01 444.3 335.01L440.54 347.43C440.54 347.43 418.84 348.79 413.1 347.33C407.36 345.87 398.08 342.43 398.08 342.43" stroke="#243C5B" stroke-width="2" stroke-miterlimit="10" stroke-linecap="round" stroke-linejoin="round"/>
<path d="M444.31 335.01C444.31 335.01 450.15 333.97 452.03 333.24C453.91 332.51 460.06 329.8 461.11 330.84" stroke="#031F43" stroke-width="2" stroke-miterlimit="10" stroke-linecap="round" stroke-linejoin="round"/>
<path d="M457.87 333.65C457.87 333.65 460.06 338.03 458.39 339.18C456.72 340.33 456.51 339.39 455.89 338.87C455.26 338.35 454.85 337.1 454.85 337.1L452.35 338.67" stroke="#031F43" stroke-width="2" stroke-miterlimit="10" stroke-linecap="round" stroke-linejoin="round"/>
<path d="M442.43 342.73C442.43 342.73 449.21 342 450.46 342.52C451.71 343.04 453.59 343.15 453.59 343.15" stroke="#031F43" stroke-width="2" stroke-miterlimit="10" stroke-linecap="round" stroke-linejoin="round"/>
<path d="M459.02 334.28C459.02 334.28 462.57 330.52 463.3 331.98C464.03 333.44 463.09 337.72 460.69 340.54C458.29 343.36 457.41 343.67 456.52 343.67C454.75 343.67 453.08 340.85 454.54 339.08" stroke="#031F43" stroke-width="2" stroke-miterlimit="10" stroke-linecap="round" stroke-linejoin="round"/>
<path d="M461.26 349.28C461.26 349.28 455.85 348.11 454.02 342.63" stroke="#031F43" stroke-width="2" stroke-miterlimit="10" stroke-linecap="round" stroke-linejoin="round"/>
<path d="M469.13 331.37C469.13 331.37 466.17 328.68 461.93 330.95" stroke="#031F43" stroke-width="2" stroke-miterlimit="10" stroke-linecap="round" stroke-linejoin="round"/>
<path d="M484.54 369.5C485.5 370.09 476.78 367.6 468.72 364.23C462.6 361.67 455.94 357.88 455.94 357.88C455.94 357.88 471.53 319.25 473.61 318.04C475.69 316.83 503.92 323.58 503.92 323.58L502.71 334.15L484.54 369.5Z" fill="#031F43"/>
<path d="M473.62 318.04C473.62 318.04 480.01 321.66 488.16 326.55C496.02 331.27 502.72 334.15 502.72 334.15" stroke="white" stroke-width="2" stroke-linecap="round" stroke-linejoin="round"/>
<path d="M388.61 347.58C388.61 347.58 385.88 359.32 382.47 368.46C379.06 377.6 376.06 381.7 375.37 383.47C374.69 385.24 372.37 393.71 372.37 393.71" stroke="#031F43" stroke-width="2" stroke-miterlimit="10" stroke-linecap="round" stroke-linejoin="round"/>
<path d="M361.73 388.52C363.64 389.48 392.16 404.21 393.26 405.72C394.35 407.22 406.09 453.76 406.09 453.76L393.94 461.81C393.94 461.81 389.44 451.44 386.16 443.52C382.88 435.6 379.47 418.95 379.06 418.41C378.65 417.87 374.56 417.86 367.73 414.86C360.9 411.86 346.71 405.17 342.62 399.3C338.53 393.43 340.85 382.79 342.07 381.01C343.3 379.24 345.89 374.6 345.62 373.91" fill="#347CE1"/>
<path d="M361.73 388.52C363.64 389.48 392.16 404.21 393.26 405.72C394.35 407.22 406.09 453.76 406.09 453.76L393.94 461.81C393.94 461.81 389.44 451.44 386.16 443.52C382.88 435.6 379.47 418.95 379.06 418.41C378.65 417.87 374.56 417.86 367.73 414.86C360.9 411.86 346.71 405.17 342.62 399.3C338.53 393.43 340.85 382.79 342.07 381.01C343.3 379.24 345.89 374.6 345.62 373.91" stroke="#243C5B" stroke-width="2" stroke-miterlimit="10" stroke-linecap="round" stroke-linejoin="round"/>
<path d="M346.24 374.02C346.24 374.02 356.42 379.56 365.98 379.29C375.54 379.02 378.92 377.88 378.92 377.88" stroke="#031F43" stroke-width="2" stroke-miterlimit="10" stroke-linecap="round" stroke-linejoin="round"/>
<path d="M344.28 377.68C344.28 377.68 352.77 383.13 362.77 383.67C372.77 384.21 375.38 383.48 375.38 383.48" stroke="#031F43" stroke-width="2" stroke-miterlimit="10" stroke-linecap="round" stroke-linejoin="round"/>
<path d="M366.32 414.51C366.32 414.51 361.73 429.51 360.2 431.2C358.67 432.88 327.29 455.08 327.29 455.08C327.29 455.08 321.63 451.25 320.25 448.65C318.87 446.05 317.04 443.29 317.04 443.29C317.04 443.29 344.13 424.31 344.75 423.7C345.36 423.09 350.57 406.4 350.57 406.4L366.32 414.51Z" fill="#347CE1" stroke="#243C5B" stroke-width="2" stroke-miterlimit="10" stroke-linecap="round" stroke-linejoin="round"/>
<path d="M394.56 461.36L396.93 468.05" stroke="#031F43" stroke-width="2" stroke-miterlimit="10" stroke-linecap="round" stroke-linejoin="round"/>
<path d="M401.97 456.69L404.2 461.72" stroke="#031F43" stroke-width="2" stroke-miterlimit="10" stroke-linecap="round" stroke-linejoin="round"/>
<path d="M395.13 468.56C395.13 468.56 398.62 468.64 400.96 467.34C404.85 465.18 405.64 460.58 405.64 460.58C405.64 460.58 419.31 455.26 420.89 455.69C422.47 456.12 425.42 458.86 425.42 458.86L409.23 472.96L410.02 473.82L402.1 479.5C402.1 479.5 399.51 477.34 397.42 474.18C395.33 471.02 395.13 468.56 395.13 468.56Z" fill="#031F43"/>
<path d="M317.95 444.98L311.74 448.42" stroke="#031F43" stroke-width="2" stroke-miterlimit="10" stroke-linecap="round" stroke-linejoin="round"/>
<path d="M323.35 452.22L318.47 455.46" stroke="#031F43" stroke-width="2" stroke-miterlimit="10" stroke-linecap="round" stroke-linejoin="round"/>
<path d="M311.25 446.66C311.25 446.66 311.45 450.14 312.93 452.37C315.39 456.07 320.04 456.5 320.04 456.5C320.04 456.5 326.43 469.71 326.12 471.32C325.81 472.93 323.32 476.09 323.32 476.09L307.98 461.07L307.18 461.93L300.89 454.49C300.89 454.49 302.84 451.74 305.83 449.41C308.83 447.07 311.25 446.66 311.25 446.66Z" fill="#031F43"/>
<path d="M377.43 331.77L378.16 336.15L381.29 336.05L382.54 332.5L379.93 328.33L377.43 331.77Z" fill="#E72A8B"/>
<path d="M381.49 334.53C381.49 334.53 380.45 350.34 374.5 356.6C371.09 360.19 364.8 362.96 359.68 362.13C354.57 361.3 345.7 357.12 345.7 357.12C345.7 357.12 342.99 347.63 343.4 347.83C343.82 348.04 353.42 345.33 353.42 345.33C353.42 345.33 363.23 352.11 368.13 352.63C373.03 353.15 378.15 336.14 378.15 336.14L381.49 334.53Z" fill="#E72A8B"/>
<path d="M390.68 321.75L397.57 325.19C397.57 325.19 399.34 332.18 398.51 337.5C397.68 342.82 395.8 348.66 396.21 353.78C396.63 358.89 403.51 387.17 403.51 385.5C403.51 383.83 396.94 365.47 392.66 356.7C388.38 347.93 385.15 329.57 385.15 329.57L385.86 324.34L390.68 321.75Z" fill="#347CE1" stroke="#243C5B" stroke-width="2" stroke-miterlimit="10" stroke-linecap="round" stroke-linejoin="round"/>
<path d="M329.69 49.5499C329.69 49.5499 337.46 57.7299 347.42 60.3199C357.38 62.9099 379.74 73.4099 379.74 73.4099C379.74 73.4099 383.97 67.8199 382.19 62.3599C380.42 56.8999 375.23 50.2199 372.37 44.3599C369.51 38.4999 368.41 36.5899 368.41 36.5899C368.41 36.5899 372.91 29.3599 370.59 27.7299C368.27 26.0899 365 27.0499 364.04 25.4099C363.08 23.7699 362.95 20.2299 359.68 18.3199C356.41 16.4099 352.86 17.2299 350.95 15.9999C349.04 14.7699 345.36 11.3599 341.95 11.2299C338.54 11.0899 331.04 12.8699 327.36 15.4599C323.68 18.0499 318.22 20.6399 318.22 20.6399C318.22 20.6399 304.41 28.4899 300.08 31.2799C282.69 42.4699 255.69 79.3199 250.26 88.2699C247.1 93.4799 240.92 106.91 233.97 117.98C227.02 129.05 201.43 176.35 182.27 182.83C163.11 189.31 136.6 186.96 111.88 171.83C87.16 156.7 71.59 143.61 60.39 136.92C49.19 130.23 36.68 125.28 23.16 126.3C9.63 127.32 1.92999 137.06 1.92999 137.06C1.92999 137.06 24.76 132.99 41.93 151.75C59.09 170.51 75.24 195.96 78.73 204.11C82.22 212.25 117.52 256.58 154.21 268.06C205.09 283.98 237.49 282.89 262.83 275.09C288.17 267.29 299.1 244.67 303.87 229.94C308.63 215.21 321.41 148.94 322.06 140.49C322.71 132.04 335.06 81.3599 335.06 81.3599C335.06 81.3599 356.64 90.6399 361.98 89.2899C367.32 87.9299 369.67 82.5099 369.67 82.5099C369.67 82.5099 367.68 78.3499 359 75.2699C350.32 72.1899 345.89 69.0299 338.65 63.6899C331.41 58.3499 328.52 56.0899 327.89 53.5599C327.26 51.0299 329.69 49.5499 329.69 49.5499Z" fill="#45D62F"/>
<path d="M322.82 27.61C322.56 27.52 317.06 16.52 313.56 17.48C310.07 18.44 307.36 24.99 309.98 28.83C312.6 32.67 315.13 32.67 315.13 32.67" fill="#45D62F"/>
<path d="M322.82 27.61C322.56 27.52 317.06 16.52 313.56 17.48C310.07 18.44 307.36 24.99 309.98 28.83C312.6 32.67 315.13 32.67 315.13 32.67" stroke="#031F43" stroke-width="2" stroke-linecap="round" stroke-linejoin="round"/>
<path d="M246.56 98.7699C246.56 98.7699 237.27 90.0299 228.16 89.8399C219.05 89.6599 211.77 96.5799 211.77 96.5799C211.77 96.5799 202.84 97.3099 202.12 99.6799C201.39 102.05 201.76 109.52 207.58 110.97C213.41 112.43 216.14 102.59 216.14 102.59C216.14 102.59 225.21 96.4499 230.31 99.7299C235.41 103.01 242.91 112.06 242.91 112.06" fill="#45D62F"/>
<path d="M246.56 98.7699C246.56 98.7699 237.27 90.0299 228.16 89.8399C219.05 89.6599 211.77 96.5799 211.77 96.5799C211.77 96.5799 202.84 97.3099 202.12 99.6799C201.39 102.05 201.76 109.52 207.58 110.97C213.41 112.43 216.14 102.59 216.14 102.59C216.14 102.59 225.21 96.4499 230.31 99.7299C235.41 103.01 242.91 112.06 242.91 112.06" stroke="#031F43" stroke-width="2" stroke-linecap="round" stroke-linejoin="round"/>
<path d="M201.95 103.08C201.95 103.08 205.45 102.17 206.75 101.4" stroke="#031F43" stroke-width="2" stroke-miterlimit="10" stroke-linecap="round" stroke-linejoin="round"/>
<path d="M203.7 106.68C203.7 106.68 207.2 105.77 208.5 105" stroke="#031F43" stroke-width="2" stroke-miterlimit="10" stroke-linecap="round" stroke-linejoin="round"/>
<path d="M205.69 109.14C205.69 109.14 209.19 108.23 210.49 107.46" stroke="#031F43" stroke-width="2" stroke-miterlimit="10" stroke-linecap="round" stroke-linejoin="round"/>
<path d="M335.07 81.36C335.07 81.36 319.2 72.64 312.93 65.74" stroke="#031F43" stroke-width="2" stroke-miterlimit="10" stroke-linecap="round" stroke-linejoin="round"/>
<path d="M342.36 32.6699C342.36 32.6699 344.45 29.7599 350.36 32.3099C356.27 34.8599 355.08 36.7599 355.08 36.7599C355.08 36.7599 351.45 37.6699 347.9 37.0299C344.36 36.3899 342.36 32.6699 342.36 32.6699Z" fill="white" stroke="#031F43" stroke-width="2" stroke-miterlimit="10" stroke-linecap="round" stroke-linejoin="round"/>
<path d="M349.36 32.03L347.36 36.21" stroke="#031F43" stroke-width="2" stroke-miterlimit="10" stroke-linecap="round" stroke-linejoin="round"/>
<path d="M202.31 344.95V373.24H199.45V378.21H282.67V374C282.67 374 281.92 356.69 280.26 351.58C278.6 346.46 276.05 344.81 276.05 344.81L202.31 344.95Z" fill="#A7CCE9"/>
<path d="M217.1 380.61C218.928 380.61 220.41 379.128 220.41 377.3C220.41 375.472 218.928 373.99 217.1 373.99C215.272 373.99 213.79 375.472 213.79 377.3C213.79 379.128 215.272 380.61 217.1 380.61Z" fill="#031F43"/>
<path d="M224.77 380.61C226.598 380.61 228.08 379.128 228.08 377.3C228.08 375.472 226.598 373.99 224.77 373.99C222.942 373.99 221.46 375.472 221.46 377.3C221.46 379.128 222.942 380.61 224.77 380.61Z" fill="#031F43"/>
<path d="M245.86 380.61C247.688 380.61 249.17 379.128 249.17 377.3C249.17 375.472 247.688 373.99 245.86 373.99C244.032 373.99 242.55 375.472 242.55 377.3C242.55 379.128 244.032 380.61 245.86 380.61Z" fill="#031F43"/>
<path d="M276.64 381.4C278.468 381.4 279.95 379.918 279.95 378.09C279.95 376.262 278.468 374.78 276.64 374.78C274.812 374.78 273.33 376.262 273.33 378.09C273.33 379.918 274.812 381.4 276.64 381.4Z" fill="#031F43"/>
<path d="M268.57 381.4C270.398 381.4 271.88 379.918 271.88 378.09C271.88 376.262 270.398 374.78 268.57 374.78C266.742 374.78 265.26 376.262 265.26 378.09C265.26 379.918 266.742 381.4 268.57 381.4Z" fill="#031F43"/>
<path d="M259.93 346.41H251.37V375.53H259.93V346.41Z" fill="#031F43"/>
<path d="M262.93 346.94H276.25C276.25 346.94 278.46 348.79 279.43 352.41C280.4 356.03 280.31 357.44 280.31 357.44H262.49L262.93 346.94Z" fill="#031F43"/>
<path d="M248.55 347.39H236.55V359.48H248.55V347.39Z" fill="#031F43"/>
<path d="M230.39 347.39H223.15V359.48H230.39V347.39Z" fill="#031F43"/>
<path d="M218.9 347.39H206.9V359.48H218.9V347.39Z" fill="#031F43"/>
<path d="M235.53 379.17C235.53 379.17 231.19 359.24 235.05 342.92C238.91 326.6 242.47 324.37 242.47 324.37C242.47 324.37 235.3 338.02 235.7 353.75C236.1 369.48 240.88 378.96 240.88 378.96" stroke="#031F43" stroke-width="2" stroke-miterlimit="10" stroke-linecap="round" stroke-linejoin="round"/>
<path d="M242.46 324.37C242.46 324.37 238.9 314.28 242.86 312.2C246.82 310.12 244.05 322.69 244.05 322.69C244.05 322.69 247.91 314.18 252.16 316.46C256.41 318.74 244.84 324.57 244.84 324.57C244.84 324.57 245.33 326.25 249.49 325.46C253.64 324.67 255.82 323.58 255.82 323.58" stroke="#031F43" stroke-width="2" stroke-miterlimit="10" stroke-linecap="round" stroke-linejoin="round"/>
<path d="M46.12 256.75L48.84 257.27L47.67 258.82L48.19 262.96L45.73 265.94L50.35 267.05L53.24 264.65L55.31 266.2L53.51 266.44L50.52 268.79L44.95 268.4L43.01 271.77C43.01 271.77 41.72 277.6 40.42 277.6C39.13 277.6 41.2 272.81 41.2 272.81C41.2 272.81 39.52 273.59 38.87 273.2C38.22 272.81 38.91 271.33 38.91 271.33C38.91 271.33 34.23 272.75 33.82 272.04C33.21 270.98 39.91 269.32 39.91 269.32L46.22 262.41L46.12 256.75Z" fill="#031F43"/>
<path d="M9.89 268.59L12.38 270.25L9.69 273.98L12.24 278.12L14.86 277.84L16.17 276.87C16.17 276.87 20.38 276.52 20.52 276.94C20.66 277.35 20.59 278.18 19.55 278.11C18.51 278.04 16.58 278.11 16.58 278.11L15.48 279.35L15.89 279.97C15.89 279.97 17.62 280.45 17.69 281.21C17.76 281.97 16.79 282.38 16.31 282.31C15.83 282.24 15.27 281.83 15.27 281.83C15.27 281.83 15.75 283.14 17.07 283.97C18.39 284.8 18.31 285.42 18.11 285.77C17.9 286.12 17.07 286.25 14.93 284.67C12.79 283.08 6.51 278.11 6.51 278.11L3.82 277.49L2.3 273.07L0.300003 271.83L3.89 271.42L5.34 275.36L8.52 276.19L7.21 273.57L9.83 270.53L9.89 268.59Z" fill="#031F43"/>
<path d="M375.32 143.37C375.32 143.37 373.93 157.01 379.75 164.03C391.01 177.62 392.24 190.11 392.24 190.11L386.55 185.76C386.55 185.76 389.22 188.7 391.07 199.03C392.91 209.36 392.1 215.97 391.73 221.88C391.36 227.79 398.54 234.5 395.99 248.15C395.98 248.2 395.97 248.26 395.96 248.32C395.64 250.08 393.17 250.23 392.68 248.51C390.63 241.34 387.15 233.05 381.6 229.71C373.62 224.91 369.79 213.11 369.43 209.42C369.07 205.73 366.49 208.86 366.48 214.95C366.47 217.9 370.17 224.17 370.17 224.17C370.17 224.17 361.83 219.04 359.38 211.46C357.08 204.35 356.15 190.96 360.95 179.9C365.75 168.83 364.64 166.25 364.64 166.25L358.37 169.2C358.37 169.2 362.83 157.18 363.2 149.44C363.57 141.69 368.02 125.23 369.92 117.65C373.2 104.54 367.59 92.0999 367.59 92.0999C367.59 92.0999 376.14 99.9498 376.8 117.98C377.05 125.22 375.32 143.37 375.32 143.37Z" fill="#E72A8B"/>
<path d="M315.81 480.35L41.67 432.62" stroke="#031F43" stroke-width="2" stroke-miterlimit="10" stroke-linecap="round" stroke-linejoin="round"/>
<path d="M293.08 442.04L144.22 391.35" stroke="#031F43" stroke-width="2" stroke-miterlimit="10" stroke-linecap="round" stroke-linejoin="round"/>
<path d="M107.03 236.25C107.03 236.25 97.65 241.05 96.77 243.89C95.9 246.73 95.46 253.93 100.7 269.2C105.94 284.48 113.79 301.5 114.45 306.3C115.1 311.1 114.45 316.34 114.45 316.34L118.38 310.23C118.38 310.23 119.69 315.25 119.03 317.87C118.37 320.49 117.07 321.8 117.07 321.8C117.07 321.8 123.18 314.38 123.4 310.45C123.62 306.52 122.31 303.25 122.31 303.25L119.25 262.66C119.25 262.66 143.04 278.37 158.09 281.86C173.15 285.35 200.45 280.65 215.62 263.32" fill="#45D62F"/>
<path d="M107.03 236.25C107.03 236.25 97.65 241.05 96.77 243.89C95.9 246.73 95.46 253.93 100.7 269.2C105.94 284.48 113.79 301.5 114.45 306.3C115.1 311.1 114.45 316.34 114.45 316.34L118.38 310.23C118.38 310.23 119.69 315.25 119.03 317.87C118.37 320.49 117.07 321.8 117.07 321.8C117.07 321.8 123.18 314.38 123.4 310.45C123.62 306.52 122.31 303.25 122.31 303.25L119.25 262.66C119.25 262.66 143.04 278.37 158.09 281.86C173.15 285.35 200.45 280.65 215.62 263.32" stroke="#031F43" stroke-width="2" stroke-linecap="round" stroke-linejoin="round"/>
<path d="M93.81 238.09L66.63 245.95L65.84 243.2L61.07 244.58L84.18 324.52L88.23 323.35C88.23 323.35 104.65 317.82 109.1 314.81C113.56 311.8 114.43 308.88 114.43 308.88L93.81 238.09Z" fill="#A7CCE9"/>
<path d="M66.83 264.59C68.6581 264.59 70.14 263.108 70.14 261.28C70.14 259.452 68.6581 257.97 66.83 257.97C65.0019 257.97 63.52 259.452 63.52 261.28C63.52 263.108 65.0019 264.59 66.83 264.59Z" fill="#031F43"/>
<path d="M68.97 271.97C70.7981 271.97 72.28 270.488 72.28 268.66C72.28 266.832 70.7981 265.35 68.97 265.35C67.1419 265.35 65.66 266.832 65.66 268.66C65.66 270.488 67.1419 271.97 68.97 271.97Z" fill="#031F43"/>
<path d="M74.82 292.22C76.6481 292.22 78.13 290.738 78.13 288.91C78.13 287.082 76.6481 285.6 74.82 285.6C72.9919 285.6 71.51 287.082 71.51 288.91C71.51 290.738 72.9919 292.22 74.82 292.22Z" fill="#031F43"/>
<path d="M82.61 322.01C84.4381 322.01 85.92 320.528 85.92 318.7C85.92 316.872 84.4381 315.39 82.61 315.39C80.7819 315.39 79.3 316.872 79.3 318.7C79.3 320.528 80.7819 322.01 82.61 322.01Z" fill="#031F43"/>
<path d="M80.37 314.26C82.1981 314.26 83.68 312.778 83.68 310.95C83.68 309.122 82.1981 307.64 80.37 307.64C78.5419 307.64 77.06 309.122 77.06 310.95C77.06 312.778 78.5419 314.26 80.37 314.26Z" fill="#031F43"/>
<path d="M108.39 293.884L106.012 285.66L78.0361 293.749L80.414 301.973L108.39 293.884Z" fill="#031F43"/>
<path d="M108.73 296.88L112.43 309.68C112.43 309.68 111.26 312.31 108.06 314.25C104.86 316.19 103.47 316.49 103.47 316.49L98.52 299.37L108.73 296.88Z" fill="#031F43"/>
<path d="M101.002 271.666L89.3875 275.024L92.7211 286.553L104.336 283.194L101.002 271.666Z" fill="#031F43"/>
<path d="M97.2819 258.791L85.667 262.15L87.6783 269.105L99.2931 265.747L97.2819 258.791Z" fill="#031F43"/>
<path d="M92.7701 243.184L81.1552 246.542L84.4888 258.071L96.1037 254.712L92.7701 243.184Z" fill="#031F43"/>
<path d="M70.16 279.51C70.16 279.51 88.1 269.8 104.85 268.97C121.6 268.14 124.73 270.95 124.73 270.95C124.73 270.95 109.63 267.85 94.63 272.6C79.63 277.35 71.85 284.58 71.85 284.58" stroke="#031F43" stroke-width="2" stroke-miterlimit="10" stroke-linecap="round" stroke-linejoin="round"/>
<path d="M124.73 270.95C124.73 270.95 133.43 264.73 136.53 267.95C139.62 271.17 126.79 272 126.79 272C126.79 272 136.03 273.34 135.03 278.06C134.03 282.78 125.2 273.28 125.2 273.28C125.2 273.28 123.72 274.22 125.64 277.99C127.55 281.76 129.2 283.55 129.2 283.55" stroke="#031F43" stroke-width="2" stroke-miterlimit="10" stroke-linecap="round" stroke-linejoin="round"/>
<path d="M390.19 95.5C390.19 95.5 387.07 110.06 393.91 120.83C399.15 129.08 422.22 138.71 425.94 146.9C429.66 155.09 426.34 165.71 429.57 180.95C431.33 189.26 441.58 203.52 441.58 203.52C441.58 203.52 432.43 177.41 437.65 158.78C442.86 140.16 422.96 114.12 422.96 114.12L437.86 120.82C437.86 120.82 432.49 99.88 422.22 102.2C405.06 106.08 390.19 95.5 390.19 95.5Z" fill="white"/>
</svg>
